<svg width="26" height="26" viewBox="0 0 26 26" fill="none" xmlns="http://www.w3.org/2000/svg">
<path d="M21.9359 4.7647H11.5903C11.3636 4.16723 10.9628 3.65157 10.4397 3.2845C9.91663 2.91743 9.2954 2.71585 8.65645 2.70587C8.02283 2.71189 7.40639 2.91266 6.89076 3.28097C6.37514 3.64927 5.98529 4.16727 5.7741 4.7647H3.61233C3.47035 4.75777 3.3284 4.77892 3.1946 4.82694C3.06081 4.87495 2.9378 4.94889 2.83262 5.04451C2.72743 5.14013 2.64215 5.25556 2.58164 5.38418C2.52113 5.51281 2.48658 5.65211 2.47998 5.79411C2.48658 5.9361 2.52113 6.0754 2.58164 6.20403C2.64215 6.33266 2.72743 6.44809 2.83262 6.54371C2.9378 6.63933 3.06081 6.71326 3.1946 6.76128C3.3284 6.80929 3.47035 6.83044 3.61233 6.82352H5.7741C5.98529 7.42094 6.37514 7.93895 6.89076 8.30725C7.40639 8.67555 8.02283 8.87633 8.65645 8.88234C9.2954 8.87236 9.91663 8.67079 10.4397 8.30372C10.9628 7.93665 11.3636 7.42099 11.5903 6.82352H21.9359C22.0778 6.83044 22.2198 6.80929 22.3536 6.76128C22.4874 6.71326 22.6104 6.63933 22.7156 6.54371C22.8208 6.44809 22.9061 6.33266 22.9666 6.20403C23.0271 6.0754 23.0616 5.9361 23.0682 5.79411C23.0616 5.65211 23.0271 5.51281 22.9666 5.38418C22.9061 5.25556 22.8208 5.14013 22.7156 5.04451C22.6104 4.94889 22.4874 4.87495 22.3536 4.82694C22.2198 4.77892 22.0778 4.75777 21.9359 4.7647ZM8.65645 6.82352C8.45285 6.82352 8.25383 6.76315 8.08454 6.65003C7.91526 6.53692 7.78331 6.37615 7.7054 6.18805C7.62749 5.99995 7.6071 5.79297 7.64682 5.59328C7.68654 5.39359 7.78458 5.21017 7.92855 5.0662C8.07251 4.92224 8.25594 4.8242 8.45562 4.78448C8.65531 4.74476 8.86229 4.76514 9.05039 4.84306C9.23849 4.92097 9.39926 5.05291 9.51238 5.2222C9.62549 5.39148 9.68586 5.59051 9.68586 5.79411C9.68586 6.06713 9.57741 6.32896 9.38436 6.52201C9.1913 6.71506 8.92947 6.82352 8.65645 6.82352Z" fill="black"/>
<path d="M21.936 11.9706H19.8257C19.599 11.3731 19.1982 10.8575 18.6751 10.4904C18.152 10.1233 17.5308 9.92174 16.8918 9.91176C16.2582 9.91777 15.6418 10.1186 15.1261 10.4869C14.6105 10.8552 14.2207 11.3732 14.0095 11.9706H3.61242C3.3394 11.9706 3.07757 12.079 2.88452 12.2721C2.69146 12.4651 2.58301 12.727 2.58301 13C2.58301 13.273 2.69146 13.5348 2.88452 13.7279C3.07757 13.921 3.3394 14.0294 3.61242 14.0294H14.0095C14.2207 14.6268 14.6105 15.1448 15.1261 15.5131C15.6418 15.8814 16.2582 16.0822 16.8918 16.0882C17.5308 16.0783 18.152 15.8767 18.6751 15.5096C19.1982 15.1425 19.599 14.6269 19.8257 14.0294H21.936C22.209 14.0294 22.4708 13.921 22.6639 13.7279C22.8569 13.5348 22.9654 13.273 22.9654 13C22.9654 12.727 22.8569 12.4651 22.6639 12.2721C22.4708 12.079 22.209 11.9706 21.936 11.9706ZM16.8918 14.0294C16.6882 14.0294 16.4892 13.969 16.3199 13.8559C16.1506 13.7428 16.0187 13.582 15.9408 13.3939C15.8629 13.2058 15.8425 12.9989 15.8822 12.7992C15.9219 12.5995 16.02 12.4161 16.1639 12.2721C16.3079 12.1281 16.4913 12.0301 16.691 11.9904C16.8907 11.9506 17.0977 11.971 17.2858 12.0489C17.4739 12.1269 17.6346 12.2588 17.7478 12.4281C17.8609 12.5974 17.9212 12.7964 17.9212 13C17.9212 13.273 17.8128 13.5348 17.6197 13.7279C17.4267 13.921 17.1649 14.0294 16.8918 14.0294Z" fill="black"/>
<path d="M21.936 19.1765H13.1345C12.9078 18.579 12.507 18.0633 11.9839 17.6963C11.4608 17.3292 10.8396 17.1276 10.2007 17.1176C9.56703 17.1237 8.95059 17.3244 8.43497 17.6927C7.91934 18.061 7.52949 18.579 7.3183 19.1765H3.61242C3.3394 19.1765 3.07757 19.2849 2.88452 19.478C2.69146 19.671 2.58301 19.9329 2.58301 20.2059C2.58301 20.4789 2.69146 20.7407 2.88452 20.9338C3.07757 21.1268 3.3394 21.2353 3.61242 21.2353H7.3183C7.52949 21.8327 7.91934 22.3507 8.43497 22.719C8.95059 23.0873 9.56703 23.2881 10.2007 23.2941C10.8396 23.2841 11.4608 23.0826 11.9839 22.7155C12.507 22.3484 12.9078 21.8328 13.1345 21.2353H21.936C22.209 21.2353 22.4708 21.1268 22.6639 20.9338C22.8569 20.7407 22.9654 20.4789 22.9654 20.2059C22.9654 19.9329 22.8569 19.671 22.6639 19.478C22.4708 19.2849 22.209 19.1765 21.936 19.1765ZM10.2007 21.2353C9.99706 21.2353 9.79803 21.1749 9.62875 21.0618C9.45946 20.9487 9.32752 20.7879 9.2496 20.5998C9.17169 20.4117 9.1513 20.2047 9.19102 20.0051C9.23074 19.8054 9.32879 19.6219 9.47275 19.478C9.61672 19.334 9.80014 19.236 9.99983 19.1962C10.1995 19.1565 10.4065 19.1769 10.5946 19.2548C10.7827 19.3327 10.9435 19.4647 11.0566 19.634C11.1697 19.8033 11.2301 20.0023 11.2301 20.2059C11.2301 20.4789 11.1216 20.7407 10.9286 20.9338C10.7355 21.1268 10.4737 21.2353 10.2007 21.2353Z" fill="black"/>
</svg>
